<svg width="111" height="74" viewBox="0 0 111 74" fill="none" xmlns="http://www.w3.org/2000/svg">
<path d="M28.5557 -103.351C35.638 -102.618 42.8931 -102.435 49.9753 -101.335C66.3855 -98.5845 79.6864 -89.6011 89.7053 -75.6677C102.833 -57.7009 109.916 -37.1675 110.607 -14.2507C110.952 -5.45063 109.225 2.98276 105.943 11.0495C102.833 18.5662 99.0332 25.7162 94.0237 32.1329C77.2681 53.3995 56.8849 68.433 30.4559 72.283C12.6638 74.8497 -4.95559 73.7497 -21.7113 67.1496C-33.2848 62.3829 -43.8219 55.5996 -53.1498 46.9828C-56.2591 44.0495 -58.8502 40.1996 -61.0958 36.3496C-67.1416 25.5329 -70.7692 13.6162 -74.0511 1.69942C-75.0875 -1.96727 -74.9148 -6.18396 -74.9148 -10.034C-74.9148 -34.6008 -66.6234 -55.5009 -49.3495 -72.1843C-29.6572 -91.0678 -6.68298 -101.885 20.2643 -102.801C23.0279 -102.801 25.7919 -102.801 28.5557 -102.801C28.5557 -102.985 28.5557 -103.168 28.5557 -103.351ZM28.2103 -82.8177C5.58147 -83.5511 -14.4562 -76.0344 -32.0756 -61.1843C-39.3307 -54.9509 -45.5493 -47.8009 -49.695 -38.6342C-59.1957 -17.5507 -57.2955 2.79942 -46.2402 22.5995C-44.5129 25.716 -41.9218 28.2829 -39.1579 30.4829C-34.6667 34.1496 -30.0027 37.4496 -25.166 40.5663C-12.2106 48.9995 1.60848 53.7662 17.155 53.0329C47.2114 51.5662 69.1493 36.3496 84.8686 10.1328C86.7687 7.01611 88.1506 3.7161 89.187 0.232742C90.396 -3.61728 91.2599 -7.83398 91.4327 -11.684C91.4327 -31.6674 85.2141 -49.4509 73.4678 -64.6676C65.8673 -74.3844 56.0212 -80.2511 43.9295 -81.5344C38.7473 -82.2677 33.3924 -82.4511 28.2103 -82.8177Z" fill="#81ADC8"/>
</svg>
