<svg width="37" height="36" viewBox="0 0 37 36" fill="none" xmlns="http://www.w3.org/2000/svg">
<path d="M16.0867 11.455V16.9103V19.0908V24.546H20.6831V19.0908V16.9103V11.455H16.0867Z" fill="#FAB908"/>
<path d="M2.29814 19.0226C3.56737 19.0226 4.59628 18.0152 4.59628 16.7726C4.59628 15.5299 3.56737 14.5226 2.29814 14.5226C1.02891 14.5226 0 15.5299 0 16.7726C0 18.0152 1.02891 19.0226 2.29814 19.0226Z" fill="#0066D9"/>
<path d="M2.29814 21.4774C3.56737 21.4774 4.59628 20.47 4.59628 19.2274C4.59628 17.9847 3.56737 16.9774 2.29814 16.9774C1.02891 16.9774 0 17.9847 0 19.2274C0 20.47 1.02891 21.4774 2.29814 21.4774Z" fill="#0066D9"/>
<path d="M4.59628 16.7729H0V19.2275H4.59628V16.7729Z" fill="#0066D9"/>
<path d="M34.4718 21.4774C35.7411 21.4774 36.7699 20.47 36.7699 19.2274C36.7699 17.9847 35.7411 16.9774 34.4718 16.9774C33.2026 16.9774 32.1736 17.9847 32.1736 19.2274C32.1736 20.47 33.2026 21.4774 34.4718 21.4774Z" fill="#4285F4"/>
<path d="M34.4718 19.0226C35.7411 19.0226 36.7699 18.0152 36.7699 16.7726C36.7699 15.5299 35.7411 14.5226 34.4718 14.5226C33.2026 14.5226 32.1736 15.5299 32.1736 16.7726C32.1736 18.0152 33.2026 19.0226 34.4718 19.0226Z" fill="#4285F4"/>
<path d="M32.1736 19.2278H36.7699V16.7732H32.1736V19.2278Z" fill="#4285F4"/>
<path d="M10.2369 26.3867C11.5061 26.3867 12.535 25.3793 12.535 24.1367C12.535 22.894 11.5061 21.8867 10.2369 21.8867C8.96768 21.8867 7.93878 22.894 7.93878 24.1367C7.93878 25.3793 8.96768 26.3867 10.2369 26.3867Z" fill="#EA4335"/>
<path d="M10.2369 28.8414C11.5061 28.8414 12.535 27.8341 12.535 26.5914C12.535 25.3488 11.5061 24.3413 10.2369 24.3413C8.96768 24.3413 7.93878 25.3488 7.93878 26.5914C7.93878 27.8341 8.96768 28.8414 10.2369 28.8414Z" fill="#EA4335"/>
<path d="M12.535 24.137H7.93878V26.5916H12.535V24.137Z" fill="#EA4335"/>
<path d="M10.2369 11.6592C11.5061 11.6592 12.535 10.6518 12.535 9.40919C12.535 8.16655 11.5061 7.15918 10.2369 7.15918C8.96768 7.15918 7.93878 8.16655 7.93878 9.40919C7.93878 10.6518 8.96768 11.6592 10.2369 11.6592Z" fill="#EA4335"/>
<path d="M10.2369 19.6362C11.5061 19.6362 12.535 18.6288 12.535 17.3862C12.535 16.1435 11.5061 15.1362 10.2369 15.1362C8.96768 15.1362 7.93878 16.1435 7.93878 17.3862C7.93878 18.6288 8.96768 19.6362 10.2369 19.6362Z" fill="#EA4335"/>
<path d="M12.535 9.40894H7.93878V17.4374H12.535V9.40894Z" fill="#EA4335"/>
<path d="M26.533 14.114C27.8022 14.114 28.8311 13.1066 28.8311 11.864C28.8311 10.6213 27.8022 9.61395 26.533 9.61395C25.2638 9.61395 24.2349 10.6213 24.2349 11.864C24.2349 13.1066 25.2638 14.114 26.533 14.114Z" fill="#34A853"/>
<path d="M26.533 11.6592C27.8022 11.6592 28.8311 10.6518 28.8311 9.40919C28.8311 8.16655 27.8022 7.15918 26.533 7.15918C25.2638 7.15918 24.2349 8.16655 24.2349 9.40919C24.2349 10.6518 25.2638 11.6592 26.533 11.6592Z" fill="#34A853"/>
<path d="M24.2346 11.8636H28.831V9.40906H24.2346V11.8636Z" fill="#34A853"/>
<path d="M18.3849 6.95479C19.6541 6.95479 20.6831 5.94744 20.6831 4.70478C20.6831 3.46214 19.6541 2.45477 18.3849 2.45477C17.1157 2.45477 16.0867 3.46214 16.0867 4.70478C16.0867 5.94744 17.1157 6.95479 18.3849 6.95479Z" fill="#FAB908"/>
<path d="M18.3849 4.50002C19.6541 4.50002 20.6831 3.49265 20.6831 2.25001C20.6831 1.00737 19.6541 0 18.3849 0C17.1157 0 16.0867 1.00737 16.0867 2.25001C16.0867 3.49265 17.1157 4.50002 18.3849 4.50002Z" fill="#FAB908"/>
<path d="M16.087 4.70457H20.6833V2.25H16.087V4.70457Z" fill="#FAB908"/>
<path d="M18.3849 36C19.6541 36 20.6831 34.9927 20.6831 33.75C20.6831 32.5074 19.6541 31.5 18.3849 31.5C17.1157 31.5 16.0867 32.5074 16.0867 33.75C16.0867 34.9927 17.1157 36 18.3849 36Z" fill="#FAB908"/>
<path d="M18.3849 33.5459C19.6541 33.5459 20.6831 32.5385 20.6831 31.2958C20.6831 30.0532 19.6541 29.0458 18.3849 29.0458C17.1157 29.0458 16.0867 30.0532 16.0867 31.2958C16.0867 32.5385 17.1157 33.5459 18.3849 33.5459Z" fill="#FAB908"/>
<path d="M16.087 33.7503H20.6833V31.2957H16.087V33.7503Z" fill="#FAB908"/>
<path d="M26.533 28.8414C27.8022 28.8414 28.8311 27.8341 28.8311 26.5914C28.8311 25.3488 27.8022 24.3413 26.533 24.3413C25.2638 24.3413 24.2349 25.3488 24.2349 26.5914C24.2349 27.8341 25.2638 28.8414 26.533 28.8414Z" fill="#34A853"/>
<path d="M26.533 20.8638C27.8022 20.8638 28.8311 19.8565 28.8311 18.6138C28.8311 17.3712 27.8022 16.3638 26.533 16.3638C25.2638 16.3638 24.2349 17.3712 24.2349 18.6138C24.2349 19.8565 25.2638 20.8638 26.533 20.8638Z" fill="#34A853"/>
<path d="M24.2346 26.5912H28.831V18.6138H24.2346V26.5912Z" fill="#34A853"/>
<path d="M18.3849 13.7047C19.6541 13.7047 20.6831 12.6973 20.6831 11.4547C20.6831 10.2121 19.6541 9.20465 18.3849 9.20465C17.1157 9.20465 16.0867 10.2121 16.0867 11.4547C16.0867 12.6973 17.1157 13.7047 18.3849 13.7047Z" fill="#FAB908"/>
<path d="M18.3849 26.7959C19.6541 26.7959 20.6831 25.7885 20.6831 24.5458C20.6831 23.3032 19.6541 22.2958 18.3849 22.2958C17.1157 22.2958 16.0867 23.3032 16.0867 24.5458C16.0867 25.7885 17.1157 26.7959 18.3849 26.7959Z" fill="#FAB908"/>
</svg>
