<svg width="5" height="5" viewBox="0 0 5 5" fill="none" xmlns="http://www.w3.org/2000/svg">
<path d="M2.07687 4.11093C1.8031 4.11273 1.53235 4.06095 1.27964 3.95869C1.02693 3.85634 0.797277 3.7055 0.603736 3.51496C0.410194 3.32431 0.257777 3.09775 0.153485 2.84844C0.050196 2.59904 -0.00194988 2.33178 5.57308e-05 2.06232C5.57308e-05 1.51533 0.219671 0.990781 0.611769 0.604004C1.00387 0.217327 1.53635 4.51588e-05 2.0909 4.51588e-05C2.36366 -0.00175056 2.63442 0.0500252 2.88813 0.152281C3.14084 0.254637 3.37049 0.405476 3.56403 0.596022C3.75657 0.786667 3.91 1.01323 4.01329 1.26263C4.11758 1.51194 4.16972 1.7792 4.16771 2.04876C4.16771 2.59565 3.9481 3.1202 3.556 3.50698C3.1629 3.89365 2.63142 4.11093 2.07687 4.11093ZM2.07687 0.203558C1.70282 0.200864 1.3368 0.307909 1.02493 0.511124C0.713055 0.714339 0.469359 1.00445 0.324955 1.34463C0.180551 1.68482 0.141449 2.05973 0.213651 2.42157C0.285853 2.7833 0.466358 3.11581 0.730096 3.37658C0.994838 3.63736 1.33178 3.81464 1.69881 3.88587C2.06584 3.9572 2.44591 3.91919 2.79087 3.77683C3.13584 3.63447 3.42965 3.39414 3.63623 3.08648C3.8418 2.77871 3.95011 2.41748 3.94811 2.04876C3.95011 1.80703 3.90299 1.5674 3.81073 1.34364C3.71747 1.11987 3.58108 0.916356 3.4086 0.744766C3.23612 0.573275 3.03054 0.437101 2.80491 0.344223C2.57827 0.251345 2.33559 0.203558 2.0909 0.203558H2.07687ZM2.54418 2.26574L3.1228 3.0798H2.62741L2.10394 2.33367H1.65067V3.0798H1.22348V0.922644H2.20121C2.70963 0.922644 3.0536 1.18043 3.0536 1.60102C3.05661 1.75007 3.00948 1.89602 2.92023 2.01613C2.83098 2.13635 2.70362 2.22404 2.55821 2.26574H2.54418ZM2.18718 1.28897H1.65067V1.96735H2.18718C2.46195 1.96735 2.62741 1.84524 2.62741 1.62816C2.62741 1.41108 2.47598 1.28897 2.20121 1.28897H2.18718Z" fill="black"/>
</svg>
