<svg width="65" height="29" viewBox="0 0 65 29" fill="none" xmlns="http://www.w3.org/2000/svg">
<path d="M10.9285 -59.351C23.8839 -58.9843 34.7664 -55.8676 44.0943 -48.5342C57.9134 -37.9008 64.823 -23.4174 63.9593 -5.08397C63.6138 1.88273 60.85 7.93277 56.5315 13.0661C49.1037 22.0495 39.4304 26.4495 28.2023 27.9162C27.1659 28.0996 26.3022 28.0996 25.2658 27.9162C14.0378 25.8995 2.98249 23.6995 -7.03636 17.6495C-19.9918 9.39945 -26.7286 -2.88396 -26.5558 -19.0174C-26.2104 -37.5342 -12.564 -54.9509 4.01892 -58.6176C6.78274 -59.1676 9.54656 -59.1676 10.9285 -59.351ZM12.1376 -39.3675C9.7193 -38.8175 7.12822 -38.6342 4.88261 -37.7175C-5.65445 -33.1341 -10.4911 -18.284 -4.79076 -7.83399C-2.89063 -4.1673 0.0459305 -1.41729 3.50071 0.416058C10.0648 3.89941 17.1471 6.09943 24.4021 6.83276C27.8569 7.19943 31.6571 6.4661 34.9392 4.99942C42.8851 1.6994 46.1672 -4.71731 44.4398 -13.1507C42.8851 -20.8507 39.2576 -27.4508 33.039 -32.0341C26.9932 -36.4342 19.9109 -38.6342 12.1376 -39.3675Z" fill="#CD4631"/>
</svg>
