<svg width="54" height="50" viewBox="0 0 54 50" fill="none" xmlns="http://www.w3.org/2000/svg">
<path d="M30.3206 1.03089C31.4016 -0.903759 34.3592 0.0946217 34.0465 2.28864L33.4704 6.3307C33.2828 7.64704 34.4081 8.77656 35.7252 8.59392L51.4397 6.41464C53.5598 6.12063 54.5978 8.91302 52.8004 10.0752L41.1231 17.6255C39.7685 18.5014 39.9548 20.5381 41.4458 21.1536L49.3953 24.4356C51.2226 25.19 50.9642 27.8556 49.026 28.245L43.8233 29.2903C42.6479 29.5264 41.9429 30.7364 42.3171 31.8754L43.7934 36.369C44.3575 38.0862 42.5351 39.6114 40.9442 38.7537L34.6002 35.3335C32.9724 34.4558 31.1277 36.0681 31.7794 37.7988L35.2687 47.0645C36.0257 49.0746 33.5136 50.7019 31.9886 49.1893L22.1252 39.4062C21.4893 38.7755 20.5115 38.6444 19.732 39.0855L8.61284 45.3761C6.76 46.4243 4.7697 44.2369 5.98777 42.491L12.5363 33.1048C13.1355 32.246 12.9708 31.0704 12.1587 30.4094L0.741343 21.1152C-0.718241 19.927 0.121919 17.5641 2.00397 17.5641H10.8C11.7943 17.5641 12.6376 16.8337 12.7795 15.8496L14.1585 6.28702C14.4567 4.21867 17.3276 3.93587 18.0238 5.90626L20.258 12.2305C20.8313 13.8532 23.0503 14.0422 23.8897 12.5398L30.3206 1.03089Z" fill="#CD4631"/>
</svg>
