<svg width="89" height="91" viewBox="0 0 89 91" fill="none" xmlns="http://www.w3.org/2000/svg">
<path d="M2.53399 44.9659C-0.421969 43.2085 1.31933 38.664 4.69299 39.332L21.7145 42.7023C25.5224 43.4561 28.744 39.85 27.5676 36.1509L20.2822 13.2514C19.2795 10.0997 23.2947 7.8178 25.4894 10.2918L37.1098 23.3947C39.4023 25.9795 43.5471 25.586 45.3125 22.6161L57.2559 2.52278C58.8009 -0.0763222 62.7774 0.899779 62.9434 3.91875L64.3287 29.1635C64.5134 32.5293 67.8534 34.7938 71.0487 33.7198L83.0529 29.6855C86.2141 28.6231 88.5543 32.6646 86.0591 34.8775L73.5574 45.9643C70.9724 48.2568 71.3656 52.4026 74.3357 54.1679L86.411 61.3443C89.3458 63.0886 87.6544 67.6021 84.2961 66.9876L62.4628 62.992C58.4938 62.266 55.2921 66.2174 56.8251 69.9498L63.0584 85.1244C64.3992 88.3889 60.0637 90.9562 57.8458 88.2111L43.469 70.417C40.8226 67.1418 35.572 68.3016 34.5509 72.3867L32.9219 78.9026C32.0344 82.4523 26.7941 81.7356 26.8924 78.0779L27.0348 72.7827C27.1349 69.0606 23.3429 66.4884 19.9215 67.9573L9.18503 72.567C5.99116 73.9383 3.3457 69.7703 5.94616 67.464L14.5392 59.842C17.1241 57.5496 16.7312 53.4051 13.7615 51.6396L2.53399 44.9659Z" fill="black" stroke="black" stroke-width="2.04081"/>
</svg>
