<svg width="144" height="115" viewBox="0 0 144 115" fill="none" xmlns="http://www.w3.org/2000/svg">
<path d="M2.80643 115C-11.5309 115 -23.4499 112.983 -34.8506 108.033C-42.2785 104.733 -49.0153 100.15 -54.8884 94.0999C-62.8344 85.8498 -71.1258 77.5998 -79.2445 69.5331C-79.9354 68.7997 -80.7991 68.2497 -81.4901 67.5164C-84.2539 64.7664 -87.536 62.1997 -89.7816 58.8997C-101.355 42.2162 -110.165 24.0661 -112.41 2.98268C-114.31 -14.8008 -111.547 -31.8509 -105.155 -48.1676C-100.146 -61.1844 -93.7545 -73.2844 -85.2903 -83.9178C-76.6534 -94.7346 -66.8074 -103.535 -55.0611 -110.318C-41.0693 -118.018 -26.9046 -125.351 -12.0491 -131.218C9.19776 -139.468 31.3083 -142.768 53.9371 -141.851C62.2286 -141.485 70.1745 -139.468 77.4296 -135.251C86.0665 -130.301 94.7034 -125.168 102.649 -119.301C119.404 -107.201 129.596 -89.6012 136.16 -69.8011C145.488 -41.5676 146.524 -12.6008 139.097 16.3661C137.542 22.4161 135.469 28.4662 132.878 33.9662C120.786 59.2663 103.686 79.6164 79.5024 92.8165C54.628 106.383 28.5445 113.717 2.80643 115ZM2.46095 94.6499C26.1262 93.1832 49.7914 86.3998 72.0747 74.1164C90.2122 64.033 103.168 48.6329 113.186 30.1162C116.123 24.6161 118.713 18.5661 120.268 12.3327C127.005 -13.7008 126.141 -39.7342 117.159 -65.0344C111.805 -80.0678 104.031 -93.4512 91.0759 -102.801C84.1664 -107.751 76.7386 -112.151 69.3108 -116.551C63.6105 -119.851 57.3919 -121.318 51.0005 -121.501C31.1356 -121.868 11.6161 -118.935 -7.03969 -111.418C-20.1678 -106.101 -32.9505 -99.5013 -45.3878 -92.5345C-55.0611 -87.0345 -63.1799 -79.8845 -70.2621 -71.0844C-77.3444 -62.2844 -82.5265 -52.3843 -86.845 -41.7509C-93.4091 -25.6175 -95.6547 -9.1174 -92.1999 8.11603C-90.6452 15.8161 -88.5724 22.9661 -82.6993 28.6495C-79.9354 31.3995 -77.8626 35.0662 -75.7897 38.3662C-73.8896 41.2996 -72.1622 44.2329 -70.6076 47.3496C-68.0165 52.1163 -64.7345 56.1497 -60.9342 59.8163C-54.8884 65.683 -48.6698 71.7331 -42.9694 77.9664C-36.9235 84.3832 -29.8412 88.5998 -21.8952 91.1665C-14.2947 93.7332 -6.69421 94.6499 2.46095 94.6499Z" fill="#F7EDE8"/>
</svg>
